<svg width="1200" height="630" viewBox="0 0 1200 630" fill="none" xmlns="http://www.w3.org/2000/svg">
<g clip-path="url(#clip0_11_78)">
<path d="M1200 0H0V630H1200V0Z" fill="#F6AD55"/>
<g filter="url(#filter0_f_11_78)">
<path d="M617.333 988.05C880.221 988.05 1093.33 820.224 1093.33 613.2C1093.33 406.176 880.221 238.35 617.333 238.35C354.446 238.35 141.333 406.176 141.333 613.2C141.333 820.224 354.446 988.05 617.333 988.05Z" fill="#FBD38D"/>
<path d="M1058.67 518.7C1321.55 518.7 1534.67 350.874 1534.67 143.85C1534.67 -63.174 1321.55 -231 1058.67 -231C795.779 -231 582.667 -63.174 582.667 143.85C582.667 350.874 795.779 518.7 1058.67 518.7Z" fill="#F6AD55"/>
<path d="M214.667 814.8C477.554 814.8 690.667 646.974 690.667 439.95C690.667 232.926 477.554 65.1 214.667 65.1C-48.2208 65.1 -261.333 232.926 -261.333 439.95C-261.333 646.974 -48.2208 814.8 214.667 814.8Z" fill="#FBD38D"/>
<path d="M101.333 569.1C364.221 569.1 577.333 401.274 577.333 194.25C577.333 -12.774 364.221 -180.6 101.333 -180.6C-161.554 -180.6 -374.667 -12.774 -374.667 194.25C-374.667 401.274 -161.554 569.1 101.333 569.1Z" fill="#FBD38D"/>
<path d="M638.667 402.15C901.554 402.15 1114.67 234.324 1114.67 27.3C1114.67 -179.724 901.554 -347.55 638.667 -347.55C375.779 -347.55 162.667 -179.724 162.667 27.3C162.667 234.324 375.779 402.15 638.667 402.15Z" fill="#F6AD55"/>
<path d="M646.667 638.4C909.554 638.4 1122.67 470.574 1122.67 263.55C1122.67 56.526 909.554 -111.3 646.667 -111.3C383.779 -111.3 170.667 56.526 170.667 263.55C170.667 470.574 383.779 638.4 646.667 638.4Z" fill="#FBD38D"/>
</g>
<rect x="40" y="40" width="1120" height="548" rx="10" fill="white"/>
<rect x="88" y="81" width="1024" height="444" rx="10" fill="#E0EDFF"/>
<rect x="565" y="525.355" width="50" height="50" transform="rotate(-45 565 525.355)" fill="#E0EDFF"/>
</g>
<path d="M195.367 277.406C196.492 277.453 197.453 277.922 198.25 278.812C199.047 279.656 199.469 280.711 199.516 281.977V288.234H206.266L207.109 281.977C207.297 280.664 207.836 279.586 208.727 278.742C209.664 277.852 210.719 277.406 211.891 277.406C213.062 277.453 214 277.922 214.703 278.812C215.406 279.656 215.711 280.711 215.617 281.977L214.773 288.234H216.883C219.602 288.375 221.898 289.43 223.773 291.398C225.648 293.367 226.984 295.617 227.781 298.148C228.625 300.633 229.047 303.211 229.047 305.883C229.047 308.602 228.648 311.227 227.852 313.758C227.055 316.289 225.695 318.539 223.773 320.508C221.898 322.43 219.508 323.367 216.602 323.32H214.211C213.039 323.32 212.078 322.828 211.328 321.844C210.391 320.953 209.922 319.828 209.922 318.469C209.922 317.016 210.344 315.891 211.188 315.094C212.031 314.25 213.039 313.828 214.211 313.828H216.953C217.656 313.828 218.266 313.312 218.781 312.281C219.297 311.25 219.672 310.195 219.906 309.117C220.188 308.039 220.328 306.914 220.328 305.742C220.328 304.664 220.188 303.539 219.906 302.367C219.672 301.195 219.297 300.141 218.781 299.203C218.266 298.266 217.656 297.773 216.953 297.727H213.508L213.086 300.609C212.664 303.938 211.891 307.078 210.766 310.031C209.594 312.984 207.93 315.492 205.773 317.555C203.617 319.57 201.344 320.672 198.953 320.859H189.531C186.625 320.906 184.211 320.016 182.289 318.188C180.414 316.359 179.078 314.273 178.281 311.93C177.484 309.586 177.086 307.148 177.086 304.617C177.086 302.18 177.484 299.789 178.281 297.445C179.125 295.102 180.484 293.016 182.359 291.188C184.234 289.359 186.531 288.375 189.25 288.234H190.938V281.977C190.984 280.664 191.43 279.586 192.273 278.742C193.164 277.852 194.195 277.406 195.367 277.406ZM189.18 297.727C188.477 297.773 187.867 298.219 187.352 299.062C186.836 299.906 186.438 300.797 186.156 301.734C185.922 302.672 185.805 303.609 185.805 304.547C185.805 305.531 185.922 306.492 186.156 307.43C186.438 308.367 186.836 309.258 187.352 310.102C187.867 310.945 188.477 311.367 189.18 311.367H190.938V297.727H189.18ZM201.625 309.398C202.516 308.133 203.172 306.703 203.594 305.109C204.062 303.469 204.414 301.688 204.648 299.766L204.93 297.727H199.516V311.086C200.359 310.758 201.062 310.195 201.625 309.398ZM259.281 295.266H239.594C238.562 295.266 237.648 294.938 236.852 294.281C236.102 293.578 235.727 292.688 235.727 291.609C235.961 289.266 237.25 287.977 239.594 287.742H260.195H261.25C263.172 287.789 264.859 288.398 266.312 289.57C267.812 290.695 269.008 292.078 269.898 293.719C270.789 295.359 271.445 297.094 271.867 298.922C272.289 300.703 272.5 302.508 272.5 304.336C272.5 306.82 272.125 309.258 271.375 311.648C270.625 313.992 269.406 316.102 267.719 317.977C266.031 319.805 263.875 320.789 261.25 320.93H258.719H245.5C244.422 320.93 243.508 320.578 242.758 319.875C242.008 319.172 241.609 318.305 241.562 317.273C241.797 314.93 243.109 313.641 245.5 313.406H259.281C260.734 313.312 261.93 312.773 262.867 311.789C263.852 310.805 264.531 309.656 264.906 308.344C265.328 307.031 265.539 305.695 265.539 304.336C265.539 302.977 265.328 301.664 264.906 300.398C264.531 299.086 263.852 297.938 262.867 296.953C261.93 295.922 260.734 295.359 259.281 295.266ZM281.008 286.336C281.008 285.164 281.453 284.156 282.344 283.312C283.281 282.469 284.406 282.047 285.719 282.047H291.203L291.414 280.922C291.648 279.75 292.258 278.812 293.242 278.109C294.273 277.406 295.422 277.125 296.688 277.266C297.953 277.5 298.984 278.109 299.781 279.094C300.484 279.984 300.812 280.969 300.766 282.047H325.516C326.828 282.047 327.953 282.445 328.891 283.242C329.781 284.133 330.227 285.164 330.227 286.336C330.227 287.508 329.758 288.516 328.82 289.359C327.93 290.203 326.828 290.625 325.516 290.625H299.359L298.516 295.617H312.859C313.141 295.617 313.422 295.641 313.703 295.688H314.125C317.406 295.781 320.102 296.555 322.211 298.008C324.32 299.414 325.844 301.031 326.781 302.859C327.719 304.641 328.188 306.469 328.188 308.344C328.188 310.219 327.719 312.07 326.781 313.898C325.891 315.68 324.367 317.297 322.211 318.75C320.102 320.156 317.406 320.859 314.125 320.859H292.328C291.016 320.859 289.914 320.391 289.023 319.453C288.086 318.516 287.617 317.367 287.617 316.008C287.617 314.695 288.062 313.57 288.953 312.633C289.891 311.695 291.016 311.227 292.328 311.227H315.461C316.164 311.227 316.727 311.062 317.148 310.734C317.617 310.406 317.945 310.031 318.133 309.609C318.367 309.141 318.484 308.672 318.484 308.203C318.484 307.828 318.367 307.43 318.133 307.008C317.945 306.539 317.617 306.141 317.148 305.812C316.727 305.484 316.164 305.297 315.461 305.25H293.031C291.062 305.25 289.68 304.617 288.883 303.352C288.133 302.086 287.945 300.539 288.32 298.711L289.727 290.625H285.719C284.406 290.625 283.305 290.203 282.414 289.359C281.477 288.516 281.008 287.508 281.008 286.336ZM335.852 293.227C335.852 292.148 336.203 291.258 336.906 290.555C337.656 289.805 338.547 289.43 339.578 289.43H343.797C343.891 288.492 344.266 287.719 344.922 287.109C345.672 286.406 346.586 286.055 347.664 286.055C348.648 286.102 349.516 286.453 350.266 287.109C350.875 287.766 351.25 288.539 351.391 289.43H356.805C356.945 288.492 357.344 287.719 358 287.109C358.75 286.406 359.641 286.055 360.672 286.055C361.703 286.102 362.57 286.453 363.273 287.109C363.93 287.766 364.305 288.539 364.398 289.43H365.734C368.266 289.57 370.375 290.297 372.062 291.609C373.75 292.922 374.969 294.422 375.719 296.109C376.469 297.797 376.844 299.508 376.844 301.242C376.844 303.07 376.469 304.828 375.719 306.516C375.016 308.203 373.797 309.703 372.062 311.016C370.375 312.328 368.219 312.984 365.594 312.984H360.32C359.242 312.984 358.352 312.609 357.648 311.859C356.898 311.109 356.523 310.219 356.523 309.188C356.523 308.156 356.875 307.266 357.578 306.516C358.328 305.766 359.242 305.391 360.32 305.391H365.945C366.648 305.391 367.234 305.156 367.703 304.688C368.172 304.219 368.523 303.68 368.758 303.07C368.992 302.461 369.109 301.828 369.109 301.172C369.109 300.609 368.992 300.023 368.758 299.414C368.523 298.758 368.172 298.195 367.703 297.727C367.234 297.258 366.648 297 365.945 296.953H364.398C364.117 299.109 362.875 300.281 360.672 300.469C359.641 300.469 358.75 300.117 358 299.414C357.25 298.758 356.852 297.938 356.805 296.953H351.391V317.977C351.156 320.227 349.914 321.445 347.664 321.633C346.586 321.633 345.672 321.281 344.922 320.578C344.172 319.875 343.797 319.008 343.797 317.977V296.953H339.578C338.547 296.953 337.68 296.578 336.977 295.828C336.227 295.125 335.852 294.258 335.852 293.227ZM424.445 277.406C425.711 277.453 426.789 277.898 427.68 278.742C428.57 279.539 429.039 280.5 429.086 281.625V282.539H431.547C432.859 282.539 433.984 282.961 434.922 283.805C435.812 284.695 436.258 285.75 436.258 286.969C436.258 288.188 435.789 289.242 434.852 290.133C433.961 290.977 432.859 291.398 431.547 291.398H429.086V296.531H431.688C433 296.531 434.102 296.977 434.992 297.867C435.93 298.711 436.398 299.742 436.398 300.961C436.398 302.227 435.93 303.258 434.992 304.055C434.102 304.898 433 305.32 431.688 305.32H429.016C428.875 308.086 428.43 310.617 427.68 312.914C426.742 315.586 425.43 317.695 423.742 319.242C422.102 320.789 419.641 321.656 416.359 321.844H413.266C410.172 321.703 407.617 320.953 405.602 319.594C403.445 318.188 401.898 316.57 400.961 314.742C400.07 312.867 399.625 310.992 399.625 309.117C399.625 307.289 400.094 305.461 401.031 303.633C401.969 301.758 403.492 300.117 405.602 298.711C407.711 297.305 410.547 296.578 414.109 296.531H419.594V291.398H404.828C403.516 291.398 402.414 290.977 401.523 290.133C400.586 289.242 400.117 288.188 400.117 286.969C400.117 285.75 400.562 284.719 401.453 283.875C402.391 282.984 403.516 282.539 404.828 282.539H419.594V281.625C419.641 280.5 420.133 279.516 421.07 278.672C422.008 277.828 423.133 277.406 424.445 277.406ZM390.273 278.25C391.586 278.25 392.711 278.695 393.648 279.586C394.586 280.43 395.078 281.508 395.125 282.82V307.43C395.125 309.445 395.734 311.812 396.953 314.531C397.469 315.703 397.445 316.875 396.883 318.047C396.367 319.219 395.523 320.086 394.352 320.648C391.633 321.539 389.594 320.766 388.234 318.328C386.547 314.438 385.68 310.711 385.633 307.148V282.82C385.68 281.555 386.148 280.5 387.039 279.656C387.93 278.766 389.008 278.297 390.273 278.25ZM417.695 311.578C418.398 310.688 418.914 309.516 419.242 308.062C419.383 307.266 419.5 306.352 419.594 305.32H413.266C412.375 305.273 411.625 305.484 411.016 305.953C410.453 306.375 410.031 306.867 409.75 307.43C409.469 307.945 409.328 308.508 409.328 309.117C409.328 309.492 409.469 310.031 409.75 310.734C410.031 311.391 410.453 311.93 411.016 312.352C411.625 312.773 412.375 313.008 413.266 313.055H413.969C415.75 312.961 416.992 312.469 417.695 311.578ZM444.766 286.336C444.766 285.023 445.211 283.922 446.102 283.031C447.039 282.094 448.164 281.625 449.477 281.625H454.68C454.82 280.453 455.312 279.469 456.156 278.672C457.094 277.828 458.219 277.406 459.531 277.406C460.797 277.453 461.875 277.898 462.766 278.742C463.562 279.539 464.031 280.5 464.172 281.625H470.992C471.133 280.453 471.625 279.469 472.469 278.672C473.406 277.828 474.531 277.406 475.844 277.406C477.109 277.453 478.188 277.898 479.078 278.742C479.875 279.539 480.344 280.5 480.484 281.625H482.102C485.289 281.766 487.938 282.68 490.047 284.367C492.156 286.008 493.68 287.883 494.617 289.992C495.555 292.102 496.023 294.234 496.023 296.391C496.023 298.641 495.555 300.82 494.617 302.93C493.727 305.039 492.203 306.938 490.047 308.625C487.938 310.266 485.242 311.062 481.961 311.016H475.352C474.039 311.016 472.938 310.547 472.047 309.609C471.109 308.719 470.641 307.617 470.641 306.305C470.641 304.992 471.086 303.891 471.977 303C472.914 302.062 474.039 301.594 475.352 301.594H482.383C483.273 301.594 484 301.312 484.562 300.75C485.172 300.141 485.617 299.461 485.898 298.711C486.18 297.914 486.32 297.117 486.32 296.32C486.32 295.57 486.18 294.82 485.898 294.07C485.617 293.273 485.172 292.594 484.562 292.031C484 291.422 483.273 291.094 482.383 291.047H480.484C480.109 293.719 478.562 295.172 475.844 295.406C474.531 295.406 473.406 294.961 472.469 294.07C471.531 293.273 471.039 292.266 470.992 291.047H464.172V317.273C463.891 320.086 462.344 321.609 459.531 321.844C458.219 321.844 457.07 321.422 456.086 320.578C455.148 319.688 454.68 318.586 454.68 317.273V291.047H449.477C448.164 291.047 447.062 290.578 446.172 289.641C445.234 288.75 444.766 287.648 444.766 286.336ZM509.734 308.625C506.453 306.656 504.789 303.797 504.742 300.047C504.789 296.344 506.453 293.531 509.734 291.609C513.062 289.688 517.633 287.742 523.445 285.773L545.172 278.953C545.641 278.766 546.18 278.648 546.789 278.602C548.055 278.508 549.133 278.883 550.023 279.727C550.914 280.57 551.359 281.672 551.359 283.031C551.359 284.531 551.031 285.633 550.375 286.336C549.766 287.039 548.992 287.625 548.055 288.094L528.297 293.859C526.188 294.516 524.195 295.148 522.32 295.758C520.445 296.367 518.711 297.094 517.117 297.938C515.477 298.547 514.562 299.25 514.375 300.047C514.562 300.891 515.453 301.688 517.047 302.438C518.688 303.141 520.445 303.797 522.32 304.406C524.195 305.016 526.188 305.648 528.297 306.305L548.055 312.211C548.992 312.68 549.766 313.266 550.375 313.969C551.031 314.672 551.359 315.727 551.359 317.133C551.359 318.492 550.914 319.594 550.023 320.438C549.133 321.281 548.055 321.656 546.789 321.562C546.18 321.516 545.641 321.398 545.172 321.211L523.445 314.391C517.727 312.422 513.156 310.5 509.734 308.625ZM559.797 286.336C559.797 285.164 560.242 284.156 561.133 283.312C562.07 282.469 563.195 282.047 564.508 282.047H569.992L570.203 280.922C570.438 279.75 571.047 278.812 572.031 278.109C573.062 277.406 574.211 277.125 575.477 277.266C576.742 277.5 577.773 278.109 578.57 279.094C579.273 279.984 579.602 280.969 579.555 282.047H604.305C605.617 282.047 606.742 282.445 607.68 283.242C608.57 284.133 609.016 285.164 609.016 286.336C609.016 287.508 608.547 288.516 607.609 289.359C606.719 290.203 605.617 290.625 604.305 290.625H578.148L577.305 295.617H591.648C591.93 295.617 592.211 295.641 592.492 295.688H592.914C596.195 295.781 598.891 296.555 601 298.008C603.109 299.414 604.633 301.031 605.57 302.859C606.508 304.641 606.977 306.469 606.977 308.344C606.977 310.219 606.508 312.07 605.57 313.898C604.68 315.68 603.156 317.297 601 318.75C598.891 320.156 596.195 320.859 592.914 320.859H571.117C569.805 320.859 568.703 320.391 567.812 319.453C566.875 318.516 566.406 317.367 566.406 316.008C566.406 314.695 566.852 313.57 567.742 312.633C568.68 311.695 569.805 311.227 571.117 311.227H594.25C594.953 311.227 595.516 311.062 595.938 310.734C596.406 310.406 596.734 310.031 596.922 309.609C597.156 309.141 597.273 308.672 597.273 308.203C597.273 307.828 597.156 307.43 596.922 307.008C596.734 306.539 596.406 306.141 595.938 305.812C595.516 305.484 594.953 305.297 594.25 305.25H571.82C569.852 305.25 568.469 304.617 567.672 303.352C566.922 302.086 566.734 300.539 567.109 298.711L568.516 290.625H564.508C563.195 290.625 562.094 290.203 561.203 289.359C560.266 288.516 559.797 287.508 559.797 286.336ZM639.18 271.5C639.18 270.094 639.672 268.898 640.656 267.914C641.641 266.93 642.836 266.438 644.242 266.438C645.648 266.438 646.844 266.93 647.828 267.914C648.812 268.898 649.305 270.094 649.305 271.5C649.305 272.906 648.812 274.102 647.828 275.086C646.844 276.07 645.648 276.562 644.242 276.562C642.836 276.562 641.641 276.07 640.656 275.086C639.672 274.102 639.18 272.906 639.18 271.5ZM651.273 271.5C651.273 270.094 651.766 268.898 652.75 267.914C653.734 266.93 654.93 266.438 656.336 266.438C657.742 266.438 658.938 266.93 659.922 267.914C660.906 268.898 661.398 270.094 661.398 271.5C661.398 272.906 660.906 274.102 659.922 275.086C658.938 276.07 657.742 276.562 656.336 276.562C654.93 276.562 653.734 276.07 652.75 275.086C651.766 274.102 651.273 272.906 651.273 271.5ZM615.133 284.086C615.133 282.773 615.578 281.672 616.469 280.781C617.406 279.844 618.531 279.375 619.844 279.375H647.055H651.484H656.688C659.641 279.656 661.258 281.273 661.539 284.227C661.539 285.539 661.047 286.641 660.062 287.531C659.125 288.375 658 288.797 656.688 288.797H651.484H644.805C643.023 288.891 641.477 289.57 640.164 290.836C638.805 292.102 637.773 293.555 637.07 295.195C636.367 296.789 635.922 298.43 635.734 300.117C635.547 301.805 635.641 303.469 636.016 305.109C636.438 306.75 637.398 308.203 638.898 309.469C640.445 310.688 642.109 311.344 643.891 311.438H652.469C655.422 311.719 657.039 313.336 657.32 316.289C657.273 317.602 656.781 318.703 655.844 319.594C654.906 320.438 653.781 320.859 652.469 320.859H644.383C639.18 320.672 635.289 319.43 632.711 317.133C630.133 314.789 628.328 312.141 627.297 309.188C626.266 306.234 625.914 303.211 626.242 300.117C626.664 295.523 628.094 291.984 630.531 289.5C630.766 289.266 631.023 289.031 631.305 288.797H619.844C618.531 288.797 617.43 288.328 616.539 287.391C615.602 286.5 615.133 285.398 615.133 284.086ZM692.477 322.477C690.039 322.477 687.625 322.195 685.234 321.633C682.891 321.07 680.641 320.25 678.484 319.172C676.328 318.047 674.406 316.57 672.719 314.742C671.078 312.914 670.188 310.734 670.047 308.203V305.25V282.82C670.328 280.008 671.875 278.484 674.688 278.25C676 278.25 677.125 278.695 678.062 279.586C679.047 280.43 679.539 281.508 679.539 282.82V306.023C679.633 307.477 680.172 308.695 681.156 309.68C682.188 310.617 683.312 311.367 684.531 311.93C685.797 312.492 687.086 312.914 688.398 313.195C689.758 313.477 691.117 313.617 692.477 313.617C693.836 313.617 695.172 313.477 696.484 313.195C697.844 312.914 699.133 312.492 700.352 311.93C701.617 311.367 702.742 310.617 703.727 309.68C704.758 308.695 705.32 307.477 705.414 306.023V304.195C705.648 301.383 707.172 299.859 709.984 299.625C711.297 299.625 712.422 300.07 713.359 300.961C714.344 301.805 714.836 302.883 714.836 304.195V305.25V308.203C714.695 310.734 713.805 312.914 712.164 314.742C710.523 316.57 708.625 318.047 706.469 319.172C704.312 320.25 702.039 321.07 699.648 321.633C697.305 322.195 694.914 322.477 692.477 322.477ZM722.5 293.227C722.5 292.148 722.852 291.258 723.555 290.555C724.305 289.805 725.195 289.43 726.227 289.43H730.445C730.539 288.492 730.914 287.719 731.57 287.109C732.32 286.406 733.234 286.055 734.312 286.055C735.297 286.102 736.164 286.453 736.914 287.109C737.523 287.766 737.898 288.539 738.039 289.43H743.453C743.594 288.492 743.992 287.719 744.648 287.109C745.398 286.406 746.289 286.055 747.32 286.055C748.352 286.102 749.219 286.453 749.922 287.109C750.578 287.766 750.953 288.539 751.047 289.43H752.383C754.914 289.57 757.023 290.297 758.711 291.609C760.398 292.922 761.617 294.422 762.367 296.109C763.117 297.797 763.492 299.508 763.492 301.242C763.492 303.07 763.117 304.828 762.367 306.516C761.664 308.203 760.445 309.703 758.711 311.016C757.023 312.328 754.867 312.984 752.242 312.984H746.969C745.891 312.984 745 312.609 744.297 311.859C743.547 311.109 743.172 310.219 743.172 309.188C743.172 308.156 743.523 307.266 744.227 306.516C744.977 305.766 745.891 305.391 746.969 305.391H752.594C753.297 305.391 753.883 305.156 754.352 304.688C754.82 304.219 755.172 303.68 755.406 303.07C755.641 302.461 755.758 301.828 755.758 301.172C755.758 300.609 755.641 300.023 755.406 299.414C755.172 298.758 754.82 298.195 754.352 297.727C753.883 297.258 753.297 297 752.594 296.953H751.047C750.766 299.109 749.523 300.281 747.32 300.469C746.289 300.469 745.398 300.117 744.648 299.414C743.898 298.758 743.5 297.938 743.453 296.953H738.039V317.977C737.805 320.227 736.562 321.445 734.312 321.633C733.234 321.633 732.32 321.281 731.57 320.578C730.82 319.875 730.445 319.008 730.445 317.977V296.953H726.227C725.195 296.953 724.328 296.578 723.625 295.828C722.875 295.125 722.5 294.258 722.5 293.227ZM811.094 278.25C812.359 278.297 813.438 278.766 814.328 279.656C815.219 280.5 815.688 281.555 815.734 282.82V300.609C815.688 303.938 815.219 307.078 814.328 310.031C813.391 312.984 811.844 315.492 809.688 317.555C807.578 319.57 804.883 320.672 801.602 320.859H793.727C792.461 320.812 791.383 320.367 790.492 319.523C789.648 318.633 789.203 317.555 789.156 316.289C789.156 314.977 789.578 313.852 790.422 312.914C791.312 311.977 792.414 311.484 793.727 311.438H799.211C800.992 311.344 802.469 310.664 803.641 309.398C804.812 308.133 805.539 306.703 805.82 305.109C806.148 303.469 806.289 301.688 806.242 299.766V282.82C806.289 281.508 806.781 280.43 807.719 279.586C808.656 278.695 809.781 278.25 811.094 278.25ZM786.836 305.883L784.656 305.742C781.234 305.414 778.562 304.57 776.641 303.211C774.719 301.805 773.664 299.438 773.477 296.109V283.172C773.523 281.906 773.969 280.852 774.812 280.008C775.656 279.117 776.688 278.648 777.906 278.602C779.172 278.602 780.25 279.047 781.141 279.938C782.078 280.781 782.57 281.859 782.617 283.172V293.438C782.617 294.516 782.781 295.312 783.109 295.828C783.438 296.297 784.211 296.602 785.43 296.742C786.555 296.789 787.516 296.906 788.312 297.094C789.109 297.234 789.812 297.891 790.422 299.062C790.984 300.188 791.078 301.383 790.703 302.648C790.328 303.867 789.578 304.758 788.453 305.32C787.891 305.602 787.352 305.789 786.836 305.883ZM841.398 276.914C842.664 277.195 843.648 277.852 844.352 278.883C845.102 279.867 845.383 280.969 845.195 282.188L845.125 282.469H854.898C856.211 282.469 857.336 282.891 858.273 283.734C859.164 284.672 859.609 285.75 859.609 286.969C859.609 288.188 859.164 289.242 858.273 290.133H872.055C873.367 290.133 874.492 290.555 875.43 291.398C876.32 292.336 876.766 293.414 876.766 294.633C876.766 295.898 876.297 296.977 875.359 297.867C874.469 298.711 873.367 299.133 872.055 299.133H856.727C855.414 299.133 854.312 298.711 853.422 297.867C852.484 296.977 852.016 295.898 852.016 294.633C852.016 293.461 852.438 292.43 853.281 291.539H843.578L839.008 317.836C838.258 320.555 836.477 321.797 833.664 321.562C832.352 321.328 831.297 320.695 830.5 319.664C829.703 318.633 829.422 317.484 829.656 316.219L833.945 291.539H830.289C828.977 291.539 827.875 291.094 826.984 290.203C826.047 289.266 825.578 288.188 825.578 286.969C825.578 285.75 826.023 284.695 826.914 283.805C827.852 282.914 828.977 282.469 830.289 282.469H835.492L835.844 280.57C836.125 279.305 836.805 278.32 837.883 277.617C838.961 276.914 840.133 276.68 841.398 276.914ZM844.703 310.945C844.516 310.43 844.422 309.867 844.422 309.258C844.422 307.992 844.867 306.914 845.758 306.023C846.695 305.086 847.797 304.617 849.062 304.617C850.375 304.617 851.289 304.945 851.805 305.602C852.32 306.211 852.859 306.984 853.422 307.922C854.125 308.953 855.133 309.82 856.445 310.523C857.758 311.227 859.305 311.625 861.086 311.719H872.758C874.07 311.766 875.148 312.258 875.992 313.195C876.883 314.086 877.328 315.164 877.328 316.43C877.281 317.648 876.812 318.68 875.922 319.523C875.078 320.367 874.023 320.812 872.758 320.859H858.695C855.367 320.672 852.578 319.641 850.328 317.766C848.078 315.891 846.578 314.25 845.828 312.844L844.703 310.945ZM890.266 278.25C891.578 278.25 892.703 278.695 893.641 279.586C894.578 280.43 895.07 281.508 895.117 282.82V299.766C895.07 301.688 895.188 303.469 895.469 305.109C895.797 306.703 896.547 308.133 897.719 309.398C898.891 310.664 900.367 311.344 902.148 311.438H904.258C905.57 311.484 906.648 311.977 907.492 312.914C908.383 313.852 908.828 314.977 908.828 316.289C908.781 317.555 908.312 318.633 907.422 319.523C906.578 320.367 905.523 320.812 904.258 320.859H899.758C896.477 320.672 893.758 319.57 891.602 317.555C889.492 315.492 887.969 312.984 887.031 310.031C886.141 307.078 885.672 303.938 885.625 300.609V282.82C885.672 281.555 886.141 280.5 887.031 279.656C887.922 278.766 889 278.297 890.266 278.25ZM929.5 317.766C928.188 317.766 927.062 317.344 926.125 316.5C925.188 315.609 924.695 314.508 924.648 313.195V299.906C924.695 297.984 924.555 296.227 924.227 294.633C923.945 292.992 923.219 291.539 922.047 290.273C920.875 289.008 919.398 288.328 917.617 288.234H915.508C914.195 288.188 913.094 287.695 912.203 286.758C911.359 285.82 910.938 284.695 910.938 283.383C910.984 282.117 911.43 281.062 912.273 280.219C913.164 279.328 914.242 278.859 915.508 278.812H920.008C923.289 279 925.984 280.125 928.094 282.188C930.25 284.203 931.797 286.688 932.734 289.641C933.625 292.594 934.094 295.734 934.141 299.062V313.195C934.094 314.461 933.625 315.539 932.734 316.43C931.844 317.273 930.766 317.719 929.5 317.766Z" fill="black"/>
<g clip-path="url(#clip1_11_78)">
<path d="M992 335C1009.67 335 1024 320.673 1024 303C1024 285.327 1009.67 271 992 271C974.327 271 960 285.327 960 303C960 320.673 974.327 335 992 335Z" fill="#FFCC4D"/>
<path d="M1008.6 313.007C1008.44 312.869 1008.25 312.789 1008.04 312.779C1007.83 312.77 1007.63 312.832 1007.47 312.956C1007.4 313.007 1000.49 318.111 992 318.111C983.527 318.111 976.601 313.007 976.533 312.956C976.368 312.832 976.166 312.769 975.96 312.778C975.754 312.788 975.558 312.868 975.405 313.006C975.251 313.144 975.151 313.331 975.121 313.535C975.09 313.739 975.131 313.947 975.237 314.124C975.467 314.506 980.956 323.444 992 323.444C1003.04 323.444 1008.54 314.506 1008.76 314.124C1008.87 313.947 1008.91 313.739 1008.88 313.535C1008.85 313.332 1008.75 313.145 1008.6 313.007Z" fill="#664500"/>
<path d="M992 318.273C991.737 318.273 991.483 318.253 991.221 318.244V326.273H992.777V318.243C992.519 318.252 992.263 318.273 992 318.273Z" fill="#65471B"/>
<path d="M999.111 317.222C999.14 317.215 996.533 317.894 994.763 318.086C994.112 318.161 993.452 318.221 992.777 318.244V326.275H995.556C997.511 326.275 999.111 324.675 999.111 322.719V317.222ZM984.889 317.222C984.86 317.215 987.467 317.894 989.237 318.086C989.888 318.161 990.548 318.221 991.223 318.244V326.275H988.444C986.489 326.275 984.889 324.675 984.889 322.719V317.222Z" fill="white"/>
<path d="M1008.6 313.007C1008.44 312.869 1008.25 312.789 1008.04 312.779C1007.83 312.77 1007.63 312.832 1007.47 312.956C1007.41 312.995 1003.45 315.921 997.847 317.347C997.06 317.548 994.533 318.111 992.005 318.113C989.474 318.113 986.94 317.548 986.153 317.347C980.549 315.921 976.587 312.995 976.533 312.956C976.368 312.834 976.166 312.773 975.961 312.784C975.757 312.794 975.562 312.874 975.409 313.011C975.257 313.149 975.157 313.334 975.125 313.537C975.094 313.739 975.134 313.947 975.237 314.124C975.41 314.412 978.588 319.576 984.889 322.09V318.838C984.86 318.831 987.467 319.51 989.237 319.702C989.888 319.777 990.548 319.837 991.223 319.86C991.483 319.869 991.737 319.889 992 319.889C992.263 319.889 992.517 319.869 992.779 319.86C993.454 319.837 994.114 319.779 994.764 319.702C996.535 319.51 999.141 318.831 999.113 318.838V322.09C1005.41 319.576 1008.59 314.412 1008.76 314.124C1008.87 313.947 1008.91 313.739 1008.88 313.535C1008.85 313.331 1008.75 313.145 1008.6 313.007ZM1007.33 295.932C1007.33 298.979 1005.66 301.45 1003.61 301.45C1001.55 301.45 999.879 298.979 999.879 295.932C999.879 292.884 1001.55 290.413 1003.61 290.413C1005.66 290.413 1007.33 292.884 1007.33 295.932ZM976.812 295.932C976.812 298.979 978.48 301.45 980.539 301.45C982.596 301.45 984.265 298.979 984.265 295.932C984.265 292.884 982.597 290.413 980.539 290.413C978.48 290.413 976.812 292.884 976.812 295.932Z" fill="#65471B"/>
<path d="M1021.88 288.115C1021.58 287.82 1019.63 288.602 1017.66 287.597C1013.59 285.524 1003.31 283.524 996.619 288.266C995.902 288.772 992.908 288.858 992.071 288.822C991.234 288.86 988.24 288.774 987.524 288.266C980.834 283.524 970.555 285.524 966.487 287.597C964.516 288.602 962.567 287.82 962.263 288.115C961.824 288.54 961.824 290.241 962.265 290.668C962.702 291.092 964.891 291.583 965.326 292.858C965.765 294.134 965.769 301.672 969.26 304.278C972.53 306.717 980.156 307.452 984.99 304.701C989.207 302.303 989.06 297.254 989.833 294.246C990.108 293.174 990.885 292.634 992.073 292.634C993.26 292.634 994.037 293.174 994.313 294.246C995.086 297.252 994.937 302.303 999.156 304.701C1003.99 307.45 1011.62 306.716 1014.88 304.278C1018.38 301.674 1018.38 294.134 1018.82 292.858C1019.25 291.583 1021.44 291.091 1021.88 290.668C1022.32 290.241 1022.32 288.54 1021.88 288.115ZM985.98 294.604C985.844 296.568 985.493 300.34 983.141 301.679C981.7 302.5 979.82 303 977.854 303H977.852C975.675 303 972.656 302.383 971.476 301.503C970 300.403 969.438 295.873 969.227 294.179C969.092 293.1 968.729 290.463 969.916 290.058C971.801 289.416 974.43 288.915 977.12 288.915C978.352 288.915 982.491 288.991 984.507 290.232C986.293 291.329 986.057 293.523 985.98 294.604ZM1014.92 294.154C1014.71 295.85 1014.15 300.403 1012.67 301.503C1011.49 302.383 1008.47 303 1006.29 303H1006.29C1004.32 303 1002.45 302.5 1001 301.679C998.651 300.342 998.3 296.593 998.164 294.628C998.089 293.548 997.851 291.338 999.637 290.241C1001.66 289 1005.79 288.915 1007.02 288.915C1009.71 288.915 1012.34 289.407 1014.23 290.049C1015.42 290.454 1015.05 293.075 1014.92 294.154Z" fill="#292F33"/>
</g>
<defs>
<filter id="filter0_f_11_78" x="-696.667" y="-669.55" width="2553.33" height="1979.6" filterUnits="userSpaceOnUse" color-interpolation-filters="sRGB">
<feFlood flood-opacity="0" result="BackgroundImageFix"/>
<feBlend mode="normal" in="SourceGraphic" in2="BackgroundImageFix" result="shape"/>
<feGaussianBlur stdDeviation="161" result="effect1_foregroundBlur_11_78"/>
</filter>
<clipPath id="clip0_11_78">
<rect width="1200" height="630" fill="white"/>
</clipPath>
<clipPath id="clip1_11_78">
<rect width="64" height="64" fill="white" transform="translate(960 271)"/>
</clipPath>
</defs>
</svg>
